<?xml version="1.0" standalone="no"?>
<!DOCTYPE svg PUBLIC "-//W3C//DTD SVG 20010904//EN"
 "http://www.w3.org/TR/2001/REC-SVG-20010904/DTD/svg10.dtd">
<svg version="1.0" xmlns="http://www.w3.org/2000/svg"
 width="616.000000pt" height="616.000000pt" viewBox="0 0 616.000000 616.000000"
 preserveAspectRatio="xMidYMid meet">
<metadata>
Created by potrace 1.11, written by Peter Selinger 2001-2013
</metadata>
<g transform="translate(0.000000,616.000000) scale(0.100000,-0.100000)"
fill="#000000" stroke="none">
<path d="M3945 5436 c-119 -29 -230 -121 -283 -233 -24 -52 -27 -69 -27 -168
0 -102 2 -115 31 -175 87 -183 289 -277 488 -225 299 78 404 456 190 685 -98
105 -256 151 -399 116z"/>
<path d="M3923 4291 c-29 -5 -68 -18 -87 -30 -51 -32 -112 -105 -132 -159 -10
-26 -18 -48 -20 -50 -1 -2 -26 11 -55 29 -142 83 -323 146 -534 186 -114 21
-410 28 -547 13 -521 -57 -964 -335 -1207 -757 -189 -328 -254 -769 -175
-1186 67 -355 279 -699 563 -913 364 -274 921 -368 1342 -225 230 77 429 226
550 410 l49 75 0 -116 c0 -191 26 -276 113 -360 69 -68 119 -81 305 -76 141 3
149 4 200 33 86 47 140 127 162 240 8 44 10 412 8 1345 l-3 1285 -23 57 c-29
72 -98 149 -158 178 -39 18 -69 22 -173 25 -69 2 -149 0 -178 -4z m-939 -696
c253 -48 461 -207 578 -440 91 -180 120 -451 73 -675 -58 -276 -246 -506 -497
-607 -119 -48 -235 -65 -408 -60 -161 5 -220 16 -339 63 -196 77 -369 253
-450 456 -92 231 -91 537 3 770 37 90 85 164 160 245 139 150 312 235 528 263
89 11 255 4 352 -15z"/>
</g>
</svg>
