<svg width="77" height="69" viewBox="0 0 77 69" fill="none" xmlns="http://www.w3.org/2000/svg">
<path d="M2.21738 22.83C5.74924 16.3158 12.5787 10.8796 18.8589 7.11072C25.3477 3.22204 32.6457 0.591604 40.2597 0.106615C53.8821 -0.765976 71.2117 5.41228 75.281 19.7272C77.2576 26.6895 75.219 33.8737 72.3535 40.2935C70.5896 44.2435 68.6278 48.1235 66.2732 51.7648C64.9286 53.844 63.6026 55.9631 61.9105 57.7901C60.1594 59.6804 57.8983 61.0059 55.7012 62.3274C50.6938 65.3396 45.0643 67.3312 39.2596 68.1346C31.7677 69.1737 21.9005 68.7861 15.9068 63.6032C11.0588 59.4116 8.15007 52.9276 5.73644 47.1496C4.09158 43.2142 2.54516 39.2076 1.64054 35.0336C0.766438 31.0096 0.172873 26.5999 2.21738 22.83Z" fill="#30EAEE"/>
<path d="M50.5356 15.2323C49.0926 15.2323 47.868 14.7356 46.862 13.7403C45.855 12.745 45.354 11.5325 45.354 10.1048C45.354 8.63426 45.856 7.40231 46.862 6.40603C47.868 5.41074 49.0926 4.91309 50.5356 4.91309C52.022 4.91309 53.2584 5.41074 54.2417 6.40603C55.2251 7.40231 55.7183 8.63426 55.7183 10.1048C55.7183 11.5325 55.2261 12.745 54.2417 13.7403C53.2574 14.7356 52.022 15.2323 50.5356 15.2323Z" fill="#012B48"/>
<path d="M52.1154 19.3208H49.5069C47.8827 19.3208 46.5046 20.6161 46.0518 22.3982C45.0468 21.7652 43.9748 21.2393 42.8133 20.7914C40.3032 19.8272 37.5667 19.35 34.6038 19.35C31.5818 19.35 28.8256 19.8467 26.345 20.8303C23.8645 21.8139 21.7087 23.1871 19.8975 24.9303C19.8385 24.9887 19.7696 25.0472 19.7105 25.1153C17.978 26.8294 16.6393 28.855 15.6746 31.2021C14.9364 32.9843 14.4737 34.8736 14.2867 36.87C14.208 37.6004 14.1686 38.3406 14.1686 39.1002C14.1686 42.4503 14.7198 45.3427 15.8223 47.8066C16.9248 50.2608 18.3619 52.3156 20.1239 53.9615C21.8859 55.6073 23.9038 56.8344 26.1482 57.6427C28.4023 58.451 30.6565 58.8601 32.9107 58.8601C36.1393 58.8601 38.9251 58.1394 41.2777 56.6883C43.3153 55.4418 44.8509 53.8251 45.8943 51.8384V54.5263C45.8943 54.8282 45.9238 55.1301 45.973 55.4223C46.2191 56.8247 47.0263 57.9836 48.1091 58.529C48.2469 58.5971 48.3945 58.6556 48.5422 58.7043C48.6209 58.7335 48.6997 58.7529 48.7785 58.7724C49.0147 58.8309 49.2509 58.8601 49.5069 58.8601H52.1056C52.4304 58.8601 52.7552 58.8114 53.0505 58.714H53.0604C53.2573 58.6458 53.4541 58.5582 53.6313 58.4608C53.6412 58.4608 53.6412 58.4608 53.6412 58.4608C53.8282 58.3537 53.9955 58.2271 54.1629 58.0907C54.2514 58.0323 54.3302 57.9544 54.4089 57.8765C54.7732 57.5161 55.0685 57.0876 55.285 56.591C55.3342 56.4741 55.3933 56.3475 55.4327 56.2111C55.6197 55.695 55.7181 55.1399 55.7181 54.5458V23.6448C55.7181 21.2588 54.1038 19.3208 52.1154 19.3208ZM42.705 47.271C40.6772 49.3745 37.9801 50.4263 34.6038 50.4263C31.2176 50.4263 28.5106 49.3745 26.4632 47.271C24.4157 45.1674 23.392 42.4503 23.392 39.1002C23.392 38.5256 23.4215 37.9705 23.4904 37.4349C23.5593 36.7629 23.6774 36.1104 23.8546 35.4968C24.337 33.7439 25.213 32.2246 26.4632 30.9391C28.5106 28.8355 31.2176 27.7838 34.6038 27.7838C37.9801 27.7838 40.6772 28.8355 42.705 30.9391C44.7229 33.0427 45.7368 35.7598 45.7368 39.1002C45.7368 42.4503 44.7229 45.1674 42.705 47.271Z" fill="#012B48"/>
</svg>