<svg width="263" height="80" viewBox="0 0 263 80" fill="none" xmlns="http://www.w3.org/2000/svg">
<g clip-path="url(#clip0)">
<path d="M10.5306 27.3754C14.0625 20.8612 20.8919 15.425 27.1721 11.6561C33.6609 7.76745 40.9589 5.13701 48.5729 4.65203C62.1954 3.77943 79.5249 9.95769 83.5942 24.2727C85.5708 31.2349 83.5322 38.4191 80.6668 44.8389C78.9028 48.789 76.941 52.6689 74.5864 56.3102C73.2418 58.3894 71.9159 60.5086 70.2238 62.3355C68.4726 64.2258 66.2115 65.5513 64.0145 66.8728C59.0071 69.885 53.3775 71.8766 47.5728 72.68C40.0809 73.7191 30.2137 73.3315 24.22 68.1486C19.3721 63.957 16.4633 57.473 14.0497 51.695C12.4048 47.7596 10.8584 43.7531 9.95378 39.579C9.07967 35.555 8.48611 31.1453 10.5306 27.3754Z" fill="#30EAEE"/>
<path d="M126.464 13.5046V14.5466C126.464 16.7573 124.653 18.5493 122.419 18.5493H115.538C113.303 18.5493 111.492 20.3412 111.492 22.5519V55.1962C111.492 55.2643 111.492 55.3325 111.482 55.4007V59.1209C111.482 61.5166 109.868 63.4546 107.88 63.4546H105.271C103.282 63.4546 101.668 61.5166 101.668 59.1209V55.4007C101.659 55.3325 101.659 55.2643 101.659 55.1962V22.5519C101.659 20.3412 99.8473 18.5493 97.6227 18.5493H90.7322C88.4977 18.5493 86.6865 16.7573 86.6865 14.5466V13.5046C86.6865 11.3036 88.4977 9.51172 90.7322 9.51172H122.419C124.653 9.51172 126.464 11.3036 126.464 13.5046Z" fill="#012B48"/>
<path d="M252.573 56.8393L241.588 47.0032C239.895 45.4936 239.895 43.1174 241.588 41.5982L251.756 32.5314C254.532 30.048 252.475 25.9188 248.459 25.9188H247.691C246.401 25.9188 245.171 26.3862 244.305 27.1946L230.376 40.3516V13.8914C230.376 13.4142 230.307 12.9468 230.179 12.5183C230.159 12.4306 230.13 12.343 230.11 12.2651C230.11 12.2456 230.1 12.2261 230.09 12.2066C230.051 12.08 229.992 11.9534 229.943 11.8268C229.874 11.6807 229.805 11.5444 229.726 11.4081C229.608 11.2133 229.47 11.0283 229.333 10.853C229.224 10.7361 229.116 10.6192 228.998 10.5121C228.634 10.1907 228.22 9.92777 227.767 9.74274C227.256 9.52849 226.675 9.41162 226.074 9.41162H224.755C222.432 9.41162 220.552 11.1549 220.552 13.3169V30.6226C219.774 29.6974 218.898 28.8696 217.944 28.1197C216.26 26.805 214.311 25.7824 212.106 25.0423C209.911 24.3119 207.529 23.9418 204.97 23.9418C201.948 23.9418 199.192 24.4385 196.711 25.4221C194.23 26.4155 192.075 27.7789 190.264 29.5319C188.442 31.2751 187.035 33.3689 186.041 35.7939C185.972 35.9497 185.913 36.1152 185.854 36.2808C185.795 36.1055 185.726 35.9302 185.657 35.7549C184.663 33.3007 183.275 31.1972 181.513 29.4539C180.715 28.6651 179.839 27.9542 178.884 27.3309C177.733 26.5615 176.473 25.909 175.095 25.3832C172.585 24.419 169.848 23.9418 166.885 23.9418C163.863 23.9418 161.107 24.4385 158.626 25.4221C156.146 26.4057 153.99 27.7789 152.179 29.5221C152.12 29.5805 152.051 29.639 151.993 29.7072C151.786 29.4929 151.57 29.2786 151.343 29.0741C149.788 27.6815 147.927 26.6394 145.752 25.9577C143.577 25.2663 141.175 24.9254 138.566 24.9254C135.958 24.9254 133.556 25.2663 131.38 25.9577C130.711 26.1623 130.071 26.4057 129.471 26.6881C128.093 27.3017 126.872 28.0808 125.789 29.0352C124.244 30.3986 123.033 32.1321 122.157 34.2357C121.291 36.3392 120.848 38.8031 120.848 41.6468V59.1181C120.848 59.2253 120.858 59.3324 120.858 59.4395C120.858 59.4785 120.868 59.5272 120.868 59.5661C120.877 59.7122 120.897 59.8485 120.917 59.9946C120.956 60.2089 121.005 60.4231 121.084 60.6276C121.586 62.2735 122.915 63.4519 124.46 63.4519H127.069C129.057 63.4519 130.672 61.5139 130.672 59.1181V39.7867C130.918 37.7124 131.627 36.1931 132.768 35.2193C134.245 33.9825 136.174 33.3592 138.566 33.3592C140.958 33.3592 142.897 33.9825 144.364 35.2193C145.801 36.4366 146.54 38.5207 146.569 41.4618C146.49 42.1922 146.451 42.9324 146.451 43.692C146.451 47.0421 147.002 49.9345 148.105 52.3984C149.207 54.8526 150.644 56.9074 152.406 58.5533C154.168 60.1991 156.186 61.4262 158.431 62.2345C160.685 63.0429 162.939 63.4519 165.193 63.4519C168.422 63.4519 171.207 62.7312 173.56 61.2801C175.598 60.0336 177.133 58.417 178.177 56.4302V59.1181C178.177 61.5139 179.791 63.4519 181.789 63.4519H184.388C186.386 63.4519 188.001 61.5139 188.001 59.1181V55.2129C188.66 56.1673 189.418 57.0535 190.265 57.8716C192.076 59.6148 194.231 60.9782 196.712 61.9716C199.193 62.9552 201.949 63.4519 204.971 63.4519C207.53 63.4519 209.912 63.0818 212.107 62.3514C214.312 61.621 216.261 60.5887 217.945 59.274C218.899 58.5338 219.775 57.6963 220.553 56.7808V59.4395C220.553 60.0433 220.701 60.6276 220.967 61.1438C220.976 61.1633 220.986 61.173 220.986 61.1828C221.596 62.5364 222.788 63.4519 224.166 63.4519H226.764C228.664 63.4519 230.219 61.6989 230.357 59.4687C230.377 59.3519 230.377 59.235 230.377 59.1181V48.4834L244.837 62.1664C245.703 62.9844 246.924 63.4519 248.223 63.4519H249.277C253.292 63.4519 255.359 59.3226 252.573 56.8393ZM174.986 51.8628C172.959 53.9664 170.261 55.0181 166.885 55.0181C163.499 55.0181 160.792 53.9664 158.745 51.8628C156.697 49.7592 155.673 47.0421 155.673 43.692C155.673 43.1174 155.703 42.5623 155.772 42.0267C155.841 41.3547 155.959 40.7022 156.136 40.0886C156.618 38.3357 157.494 36.8164 158.745 35.5309C160.792 33.4274 163.499 32.3756 166.885 32.3756C170.261 32.3756 172.959 33.4274 174.986 35.5309C177.004 37.6345 178.018 40.3516 178.018 43.692C178.017 47.0421 177.004 49.7592 174.986 51.8628ZM220.552 48.8438C220.001 48.5613 219.381 48.4055 218.702 48.4055H217.894C216.526 48.4055 215.217 49.0678 214.479 50.2169C213.701 51.4148 212.697 52.4179 211.457 53.2359C209.636 54.4241 207.47 55.0181 204.97 55.0181C201.593 55.0181 198.877 53.9664 196.829 51.8628C194.782 49.769 193.758 47.0421 193.758 43.7017C193.758 40.3516 194.782 37.6345 196.829 35.5309C198.877 33.4274 201.593 32.3756 204.97 32.3756C207.47 32.3756 209.636 32.9696 211.457 34.1675C212.697 34.9758 213.701 35.9789 214.479 37.1865C215.217 38.3259 216.526 38.9882 217.894 38.9882H218.702C219.381 38.9882 220.001 38.8323 220.552 38.5499V48.8438Z" fill="#012B48"/>
<path d="M58.8491 19.7777C57.4061 19.7777 56.1815 19.281 55.1755 18.2857C54.1685 17.2904 53.6675 16.0779 53.6675 14.6502C53.6675 13.1797 54.1695 11.9477 55.1755 10.9514C56.1815 9.95615 57.4061 9.4585 58.8491 9.4585C60.3355 9.4585 61.5718 9.95615 62.5552 10.9514C63.5386 11.9477 64.0317 13.1797 64.0317 14.6502C64.0317 16.0779 63.5396 17.2904 62.5552 18.2857C61.5709 19.281 60.3355 19.7777 58.8491 19.7777Z" fill="#012B48"/>
<path d="M60.4288 23.8662H57.8202C56.196 23.8662 54.8179 25.1615 54.3651 26.9437C53.3601 26.3106 52.2882 25.7847 51.1266 25.3368C48.6165 24.3726 45.88 23.8954 42.9171 23.8954C39.8951 23.8954 37.139 24.3921 34.6584 25.3757C32.1778 26.3593 30.0221 27.7325 28.2109 29.4757C28.1518 29.5342 28.0829 29.5926 28.0238 29.6608C26.2914 31.3748 24.9527 33.4004 23.988 35.7475C23.2497 37.5297 22.7871 39.419 22.6001 41.4154C22.5213 42.1458 22.4819 42.886 22.4819 43.6456C22.4819 46.9957 23.0332 49.8881 24.1356 52.352C25.2381 54.8062 26.6753 56.8611 28.4373 58.5069C30.1993 60.1527 32.2172 61.3798 34.4615 62.1881C36.7157 62.9965 38.9699 63.4055 41.224 63.4055C44.4527 63.4055 47.2384 62.6848 49.591 61.2337C51.6286 59.9872 53.1642 58.3706 54.2076 56.3839V59.0717C54.2076 59.3736 54.2372 59.6755 54.2864 59.9677C54.5325 61.3701 55.3397 62.529 56.4224 63.0744C56.5603 63.1425 56.7079 63.201 56.8556 63.2497C56.9343 63.2789 57.0131 63.2984 57.0918 63.3178C57.328 63.3763 57.5643 63.4055 57.8202 63.4055H60.4189C60.7438 63.4055 61.0686 63.3568 61.3639 63.2594H61.3737C61.5706 63.1912 61.7675 63.1036 61.9447 63.0062C61.9545 63.0062 61.9545 63.0062 61.9545 63.0062C62.1415 62.8991 62.3089 62.7725 62.4762 62.6361C62.5648 62.5777 62.6436 62.4998 62.7223 62.4219C63.0865 62.0615 63.3818 61.633 63.5984 61.1364C63.6476 61.0195 63.7067 60.8929 63.746 60.7565C63.9331 60.2404 64.0315 59.6853 64.0315 59.0912V28.1902C64.0315 25.8042 62.4172 23.8662 60.4288 23.8662ZM51.0183 51.8164C48.9906 53.92 46.2934 54.9717 42.9171 54.9717C39.5309 54.9717 36.824 53.92 34.7765 51.8164C32.7291 49.7128 31.7053 46.9957 31.7053 43.6456C31.7053 43.071 31.7349 42.5159 31.8038 41.9803C31.8727 41.3083 31.9908 40.6558 32.168 40.0423C32.6503 38.2893 33.5264 36.77 34.7765 35.4845C36.824 33.381 39.5309 32.3292 42.9171 32.3292C46.2934 32.3292 48.9906 33.381 51.0183 35.4845C53.0363 37.5881 54.0501 40.3052 54.0501 43.6456C54.0501 46.9957 53.0363 49.7128 51.0183 51.8164Z" fill="#012B48"/>
</g>
<defs>
<clipPath id="clip0">
<rect width="244.704" height="68.5714" fill="white" transform="translate(9.14771 4.57129)"/>
</clipPath>
</defs>
</svg>
