<svg width="267" height="81" viewBox="0 0 267 81" fill="none" xmlns="http://www.w3.org/2000/svg">
<g clip-path="url(#clip0)">
<path d="M10.691 27.7178C14.2766 21.1222 21.2099 15.6181 27.5856 11.8021C34.1732 7.86477 41.5822 5.20146 49.3119 4.71041C63.1416 3.82691 80.7347 10.0824 84.8659 24.5763C86.8726 31.6256 84.803 38.8996 81.8939 45.3996C80.1031 49.399 78.1115 53.3275 75.7211 57.0143C74.356 59.1195 73.0099 61.2651 71.2921 63.115C69.5143 65.0289 67.2188 66.3709 64.9883 67.709C59.9048 70.7588 54.1896 72.7753 48.2966 73.5888C40.6908 74.6409 30.6735 74.2484 24.5887 69.0007C19.667 64.7567 16.714 58.1916 14.2636 52.3414C12.5938 48.3568 11.0238 44.3002 10.1054 40.074C9.21804 35.9997 8.61545 31.5348 10.691 27.7178Z" fill="#55FBFF"/>
<path d="M128.388 13.6737V14.7287C128.388 16.9671 126.549 18.7814 124.281 18.7814H117.296C115.027 18.7814 113.188 20.5957 113.188 22.834V55.8863C113.188 55.9554 113.188 56.0244 113.178 56.0934V59.8601C113.178 62.2858 111.539 64.248 109.521 64.248H106.873C104.853 64.248 103.215 62.2858 103.215 59.8601V56.0934C103.205 56.0244 103.205 55.9554 103.205 55.8863V22.834C103.205 20.5957 101.366 18.7814 99.1079 18.7814H92.1126C89.8441 18.7814 88.0054 16.9671 88.0054 14.7287V13.6737C88.0054 11.4452 89.8441 9.63086 92.1126 9.63086H124.281C126.549 9.63086 128.388 11.4452 128.388 13.6737Z" fill="white"/>
<path d="M256.415 57.5498L245.263 47.5907C243.544 46.0623 243.544 43.6564 245.263 42.1182L255.586 32.9381C258.404 30.4236 256.315 26.2428 252.238 26.2428H251.459C250.149 26.2428 248.9 26.7161 248.021 27.5345L233.88 40.856V14.0651C233.88 13.582 233.81 13.1086 233.681 12.6748C233.661 12.586 233.631 12.4973 233.611 12.4184C233.611 12.3987 233.601 12.379 233.591 12.3593C233.551 12.2311 233.491 12.1029 233.441 11.9747C233.371 11.8268 233.301 11.6887 233.221 11.5507C233.101 11.3535 232.961 11.1661 232.821 10.9886C232.711 10.8703 232.601 10.752 232.481 10.6435C232.112 10.3181 231.692 10.0519 231.232 9.86455C230.713 9.64762 230.123 9.5293 229.513 9.5293H228.174C225.816 9.5293 223.907 11.2943 223.907 13.4833V31.0054C223.118 30.0687 222.228 29.2305 221.259 28.4713C219.55 27.1401 217.571 26.1048 215.333 25.3554C213.104 24.6158 210.686 24.2411 208.088 24.2411C205.02 24.2411 202.222 24.744 199.703 25.7399C197.185 26.7457 194.997 28.1261 193.158 29.901C191.309 31.6661 189.88 33.7861 188.871 36.2413C188.801 36.3991 188.741 36.5667 188.681 36.7343C188.621 36.5569 188.551 36.3794 188.481 36.2019C187.472 33.717 186.063 31.5872 184.274 29.8221C183.464 29.0234 182.575 28.3036 181.606 27.6726C180.436 26.8936 179.157 26.2329 177.758 25.7005C175.21 24.7243 172.432 24.2411 169.424 24.2411C166.356 24.2411 163.558 24.744 161.04 25.7399C158.521 26.7358 156.333 28.1262 154.494 29.8912C154.434 29.9503 154.364 30.0095 154.305 30.0785C154.095 29.8616 153.875 29.6447 153.646 29.4376C152.067 28.0275 150.178 26.9725 147.969 26.2822C145.761 25.5821 143.323 25.237 140.674 25.237C138.026 25.237 135.588 25.5821 133.379 26.2822C132.7 26.4893 132.05 26.7358 131.441 27.0218C130.042 27.643 128.802 28.4318 127.703 29.3981C126.134 30.7786 124.905 32.5338 124.016 34.6636C123.136 36.7935 122.687 39.2882 122.687 42.1675V59.8571C122.687 59.9656 122.697 60.0741 122.697 60.1825C122.697 60.222 122.707 60.2713 122.707 60.3107C122.717 60.4586 122.736 60.5967 122.756 60.7446C122.796 60.9615 122.846 61.1784 122.926 61.3855C123.436 63.0519 124.785 64.2451 126.354 64.2451H129.002C131.021 64.2451 132.66 62.2828 132.66 59.8571V40.2841C132.91 38.1838 133.629 36.6456 134.788 35.6595C136.287 34.4073 138.246 33.7762 140.674 33.7762C143.103 33.7762 145.071 34.4073 146.56 35.6595C148.019 36.8921 148.769 39.0022 148.799 41.9801C148.719 42.7196 148.679 43.469 148.679 44.2382C148.679 47.6302 149.239 50.5587 150.358 53.0534C151.477 55.5383 152.936 57.6188 154.725 59.2852C156.514 60.9517 158.562 62.1941 160.841 63.0125C163.129 63.8309 165.418 64.2451 167.706 64.2451C170.984 64.2451 173.812 63.5154 176.2 62.0462C178.269 60.784 179.828 59.1472 180.887 57.1357V59.8571C180.887 62.2828 182.526 64.2451 184.555 64.2451H187.193C189.222 64.2451 190.86 62.2828 190.86 59.8571V55.9031C191.53 56.8694 192.299 57.7667 193.159 58.595C194.998 60.36 197.186 61.7405 199.704 62.7463C202.223 63.7422 205.021 64.2451 208.089 64.2451C210.687 64.2451 213.105 63.8704 215.334 63.1308C217.572 62.3913 219.551 61.3461 221.26 60.0149C222.229 59.2655 223.119 58.4175 223.908 57.4906V60.1825C223.908 60.7939 224.058 61.3855 224.328 61.9081C224.338 61.9278 224.348 61.9377 224.348 61.9476C224.967 63.3182 226.177 64.2451 227.576 64.2451H230.214C232.143 64.2451 233.721 62.4702 233.861 60.2121C233.881 60.0938 233.881 59.9755 233.881 59.8571V49.0895L248.561 62.9435C249.441 63.7718 250.68 64.2451 251.999 64.2451H253.068C257.145 64.2451 259.243 60.0642 256.415 57.5498ZM177.648 52.5111C175.59 54.641 172.852 55.7059 169.424 55.7059C165.986 55.7059 163.238 54.641 161.16 52.5111C159.081 50.3812 158.042 47.6302 158.042 44.2382C158.042 43.6564 158.072 43.0943 158.142 42.552C158.212 41.8716 158.331 41.211 158.511 40.5898C159.001 38.8149 159.89 37.2767 161.16 35.9751C163.238 33.8452 165.986 32.7803 169.424 32.7803C172.852 32.7803 175.59 33.8452 177.648 35.9751C179.697 38.1049 180.726 40.856 180.726 44.2382C180.725 47.6302 179.697 50.3812 177.648 52.5111ZM223.907 49.4543C223.348 49.1684 222.718 49.0106 222.028 49.0106H221.209C219.82 49.0106 218.491 49.6811 217.741 50.8447C216.952 52.0575 215.933 53.0731 214.673 53.9014C212.825 55.1044 210.626 55.7059 208.088 55.7059C204.66 55.7059 201.902 54.641 199.823 52.5111C197.745 50.3911 196.706 47.6302 196.706 44.248C196.706 40.856 197.745 38.1049 199.823 35.9751C201.902 33.8452 204.66 32.7803 208.088 32.7803C210.626 32.7803 212.825 33.3818 214.673 34.5946C215.933 35.413 216.952 36.4287 217.741 37.6514C218.491 38.805 219.82 39.4756 221.209 39.4756H222.028C222.718 39.4756 223.348 39.3178 223.907 39.0318V49.4543Z" fill="white"/>
<path d="M59.7443 20.0248C58.2793 20.0248 57.0362 19.5219 56.0148 18.5142C54.9925 17.5065 54.4839 16.2788 54.4839 14.8333C54.4839 13.3443 54.9935 12.097 56.0148 11.0883C57.0362 10.0805 58.2793 9.57666 59.7443 9.57666C61.2533 9.57666 62.5085 10.0805 63.5068 11.0883C64.5051 12.097 65.0058 13.3443 65.0058 14.8333C65.0058 16.2788 64.5061 17.5065 63.5068 18.5142C62.5075 19.5219 61.2533 20.0248 59.7443 20.0248Z" fill="#140E24"/>
<path d="M61.3482 24.1643H58.7C57.0511 24.1643 55.652 25.4757 55.1923 27.2802C54.172 26.6393 53.0838 26.1068 51.9046 25.6532C49.3563 24.6771 46.5782 24.1939 43.5702 24.1939C40.5023 24.1939 37.7042 24.6968 35.1859 25.6927C32.6676 26.6886 30.479 28.0789 28.6403 29.8439C28.5803 29.9031 28.5104 29.9623 28.4504 30.0313C26.6916 31.7667 25.3325 33.8177 24.3532 36.1941C23.6037 37.9985 23.134 39.9115 22.9441 41.9329C22.8642 42.6724 22.8242 43.4218 22.8242 44.1909C22.8242 47.5829 23.3838 50.5115 24.5031 53.0062C25.6223 55.491 27.0813 57.5716 28.8701 59.238C30.6589 60.9044 32.7075 62.1468 34.986 62.9653C37.2745 63.7837 39.5629 64.1978 41.8514 64.1978C45.1291 64.1978 47.9572 63.4681 50.3456 61.9989C52.4142 60.7368 53.9732 59.1 55.0325 57.0884V59.8099C55.0325 60.1156 55.0624 60.4213 55.1124 60.7171C55.3622 62.137 56.1817 63.3104 57.2809 63.8626C57.4208 63.9316 57.5707 63.9908 57.7206 64.0401C57.8006 64.0696 57.8805 64.0894 57.9605 64.1091C58.2003 64.1682 58.4402 64.1978 58.7 64.1978H61.3382C61.668 64.1978 61.9977 64.1485 62.2975 64.0499H62.3075C62.5074 63.9809 62.7073 63.8921 62.8871 63.7935C62.8971 63.7935 62.8971 63.7935 62.8971 63.7935C63.087 63.6851 63.2569 63.5569 63.4268 63.4188C63.5167 63.3597 63.5967 63.2808 63.6766 63.2019C64.0464 62.8371 64.3462 62.4032 64.566 61.9003C64.616 61.782 64.6759 61.6538 64.7159 61.5158C64.9058 60.9932 65.0057 60.4311 65.0057 59.8296V28.5424C65.0057 26.1265 63.3668 24.1643 61.3482 24.1643ZM51.7946 52.4639C49.736 54.5937 46.9979 55.6587 43.5702 55.6587C40.1325 55.6587 37.3844 54.5937 35.3058 52.4639C33.2272 50.334 32.1879 47.5829 32.1879 44.1909C32.1879 43.6092 32.2179 43.0471 32.2878 42.5048C32.3578 41.8244 32.4777 41.1638 32.6576 40.5426C33.1472 38.7677 34.0366 37.2294 35.3058 35.9278C37.3844 33.798 40.1325 32.7331 43.5702 32.7331C46.9979 32.7331 49.736 33.798 51.7946 35.9278C53.8433 38.0577 54.8726 40.8088 54.8726 44.1909C54.8726 47.5829 53.8433 50.334 51.7946 52.4639Z" fill="#140E24"/>
</g>
<defs>
<clipPath id="clip0">
<rect width="248.426" height="69.4286" fill="white" transform="translate(9.28711 4.62866)"/>
</clipPath>
</defs>
</svg>
